<mxfile host="app.diagrams.net" modified="2023-10-07T07:44:08.335Z" agent="Mozilla/5.0 (Macintosh; Intel Mac OS X 10_15_7) AppleWebKit/537.36 (KHTML, like Gecko) Chrome/117.0.0.0 Safari/537.36" etag="gOfhYcmuJoIFjiTcC--y" version="22.0.4" type="github">
  <diagram name="第 1 页" id="8txZNbQ0SxlxXvtWB0ZA">
    <mxGraphModel dx="1026" dy="585" grid="1" gridSize="10" guides="1" tooltips="1" connect="1" arrows="1" fold="1" page="1" pageScale="1" pageWidth="1169" pageHeight="827" math="0" shadow="0">
      <root>
        <mxCell id="0" />
        <mxCell id="1" parent="0" />
        <mxCell id="jR49aNxmQRyQQmH85-RO-2" value="&lt;b style=&quot;font-size: 15px;&quot;&gt;agentHive(main)&lt;/b&gt;" style="rounded=1;whiteSpace=wrap;html=1;sketch=1;curveFitting=1;jiggle=2;fontSize=15;" vertex="1" parent="1">
          <mxGeometry x="500" y="10" width="140" height="70" as="geometry" />
        </mxCell>
        <mxCell id="jR49aNxmQRyQQmH85-RO-3" value="Infrastructure" style="rounded=1;whiteSpace=wrap;html=1;sketch=1;curveFitting=1;jiggle=2;fontSize=14;" vertex="1" parent="1">
          <mxGeometry x="230" y="140" width="120" height="60" as="geometry" />
        </mxCell>
        <mxCell id="jR49aNxmQRyQQmH85-RO-4" value="ControlPlane&lt;span style=&quot;white-space: pre; font-size: 14px;&quot;&gt;&#x9;&lt;/span&gt;" style="rounded=1;whiteSpace=wrap;html=1;glass=0;sketch=1;curveFitting=1;jiggle=2;fontSize=14;" vertex="1" parent="1">
          <mxGeometry x="510" y="140" width="120" height="60" as="geometry" />
        </mxCell>
        <mxCell id="jR49aNxmQRyQQmH85-RO-5" value="datapath" style="rounded=1;whiteSpace=wrap;html=1;sketch=1;curveFitting=1;jiggle=2;fontSize=14;" vertex="1" parent="1">
          <mxGeometry x="787" y="140" width="120" height="60" as="geometry" />
        </mxCell>
        <mxCell id="jR49aNxmQRyQQmH85-RO-7" value="" style="endArrow=classic;html=1;rounded=0;exitX=0.5;exitY=1;exitDx=0;exitDy=0;entryX=0.5;entryY=0;entryDx=0;entryDy=0;sketch=1;curveFitting=1;jiggle=2;" edge="1" parent="1" source="jR49aNxmQRyQQmH85-RO-2" target="jR49aNxmQRyQQmH85-RO-3">
          <mxGeometry width="50" height="50" relative="1" as="geometry">
            <mxPoint x="530" y="308.02" as="sourcePoint" />
            <mxPoint x="580" y="258.02" as="targetPoint" />
          </mxGeometry>
        </mxCell>
        <mxCell id="jR49aNxmQRyQQmH85-RO-8" value="" style="endArrow=classic;html=1;rounded=0;exitX=0.5;exitY=1;exitDx=0;exitDy=0;entryX=0.5;entryY=0;entryDx=0;entryDy=0;sketch=1;curveFitting=1;jiggle=2;" edge="1" parent="1" source="jR49aNxmQRyQQmH85-RO-2" target="jR49aNxmQRyQQmH85-RO-4">
          <mxGeometry width="50" height="50" relative="1" as="geometry">
            <mxPoint x="530" y="108.02" as="sourcePoint" />
            <mxPoint x="300" y="188.02" as="targetPoint" />
          </mxGeometry>
        </mxCell>
        <mxCell id="jR49aNxmQRyQQmH85-RO-9" value="" style="endArrow=classic;html=1;rounded=0;entryX=0.5;entryY=0;entryDx=0;entryDy=0;exitX=0.5;exitY=1;exitDx=0;exitDy=0;sketch=1;curveFitting=1;jiggle=2;" edge="1" parent="1" source="jR49aNxmQRyQQmH85-RO-2" target="jR49aNxmQRyQQmH85-RO-5">
          <mxGeometry width="50" height="50" relative="1" as="geometry">
            <mxPoint x="520" y="98.02" as="sourcePoint" />
            <mxPoint x="780" y="148.02" as="targetPoint" />
          </mxGeometry>
        </mxCell>
        <mxCell id="jR49aNxmQRyQQmH85-RO-11" value="&lt;font style=&quot;font-size: 18px;&quot;&gt;Cilium Agent&lt;/font&gt;" style="text;html=1;strokeColor=default;fillColor=none;align=center;verticalAlign=middle;whiteSpace=wrap;rounded=1;sketch=1;curveFitting=1;jiggle=2;" vertex="1" parent="1">
          <mxGeometry x="10" y="10" width="130" height="50" as="geometry" />
        </mxCell>
        <mxCell id="jR49aNxmQRyQQmH85-RO-35" value="" style="group" vertex="1" connectable="0" parent="1">
          <mxGeometry x="170" y="231" width="240" height="320" as="geometry" />
        </mxCell>
        <mxCell id="jR49aNxmQRyQQmH85-RO-20" value="" style="rounded=1;whiteSpace=wrap;html=1;sketch=1;curveFitting=1;jiggle=2;" vertex="1" parent="jR49aNxmQRyQQmH85-RO-35">
          <mxGeometry width="240" height="320" as="geometry" />
        </mxCell>
        <mxCell id="jR49aNxmQRyQQmH85-RO-12" value="pprof" style="rounded=1;whiteSpace=wrap;html=1;sketch=1;curveFitting=1;jiggle=2;fontSize=14;" vertex="1" parent="jR49aNxmQRyQQmH85-RO-35">
          <mxGeometry x="30" y="30" width="70" height="40" as="geometry" />
        </mxCell>
        <mxCell id="jR49aNxmQRyQQmH85-RO-13" value="gops" style="rounded=1;whiteSpace=wrap;html=1;sketch=1;curveFitting=1;jiggle=2;fontSize=14;" vertex="1" parent="jR49aNxmQRyQQmH85-RO-35">
          <mxGeometry x="130" y="30" width="70" height="40" as="geometry" />
        </mxCell>
        <mxCell id="jR49aNxmQRyQQmH85-RO-14" value="k8sClient" style="rounded=1;whiteSpace=wrap;html=1;sketch=1;curveFitting=1;jiggle=2;fontSize=14;" vertex="1" parent="jR49aNxmQRyQQmH85-RO-35">
          <mxGeometry x="30" y="100" width="70" height="40" as="geometry" />
        </mxCell>
        <mxCell id="jR49aNxmQRyQQmH85-RO-15" value="cni" style="rounded=1;whiteSpace=wrap;html=1;sketch=1;curveFitting=1;jiggle=2;fontSize=14;" vertex="1" parent="jR49aNxmQRyQQmH85-RO-35">
          <mxGeometry x="130" y="100" width="70" height="40" as="geometry" />
        </mxCell>
        <mxCell id="jR49aNxmQRyQQmH85-RO-16" value="API Handlers" style="rounded=1;whiteSpace=wrap;html=1;sketch=1;curveFitting=1;jiggle=2;fontSize=14;" vertex="1" parent="jR49aNxmQRyQQmH85-RO-35">
          <mxGeometry x="30" y="170" width="70" height="40" as="geometry" />
        </mxCell>
        <mxCell id="jR49aNxmQRyQQmH85-RO-17" value="metrics" style="rounded=1;whiteSpace=wrap;html=1;sketch=1;curveFitting=1;jiggle=2;fontSize=14;" vertex="1" parent="jR49aNxmQRyQQmH85-RO-35">
          <mxGeometry x="130" y="170" width="70" height="40" as="geometry" />
        </mxCell>
        <mxCell id="jR49aNxmQRyQQmH85-RO-18" value="deletion" style="rounded=1;whiteSpace=wrap;html=1;sketch=1;curveFitting=1;jiggle=2;fontSize=14;" vertex="1" parent="jR49aNxmQRyQQmH85-RO-35">
          <mxGeometry x="30" y="240" width="70" height="40" as="geometry" />
        </mxCell>
        <mxCell id="jR49aNxmQRyQQmH85-RO-19" value="store" style="rounded=1;whiteSpace=wrap;html=1;sketch=1;curveFitting=1;jiggle=2;fontSize=14;" vertex="1" parent="jR49aNxmQRyQQmH85-RO-35">
          <mxGeometry x="130" y="240" width="70" height="40" as="geometry" />
        </mxCell>
        <mxCell id="jR49aNxmQRyQQmH85-RO-28" value="..." style="text;html=1;strokeColor=none;fillColor=none;align=center;verticalAlign=middle;whiteSpace=wrap;rounded=0;fontSize=16;" vertex="1" parent="jR49aNxmQRyQQmH85-RO-35">
          <mxGeometry x="88" y="282" width="60" height="30" as="geometry" />
        </mxCell>
        <mxCell id="jR49aNxmQRyQQmH85-RO-37" value="" style="group" vertex="1" connectable="0" parent="1">
          <mxGeometry x="430" y="231" width="280" height="379" as="geometry" />
        </mxCell>
        <mxCell id="jR49aNxmQRyQQmH85-RO-10" style="edgeStyle=orthogonalEdgeStyle;rounded=0;orthogonalLoop=1;jettySize=auto;html=1;exitX=0.75;exitY=1;exitDx=0;exitDy=0;entryX=0.946;entryY=1.033;entryDx=0;entryDy=0;entryPerimeter=0;" edge="1" parent="jR49aNxmQRyQQmH85-RO-37" source="jR49aNxmQRyQQmH85-RO-4" target="jR49aNxmQRyQQmH85-RO-4">
          <mxGeometry relative="1" as="geometry" />
        </mxCell>
        <mxCell id="jR49aNxmQRyQQmH85-RO-36" value="" style="group" vertex="1" connectable="0" parent="jR49aNxmQRyQQmH85-RO-37">
          <mxGeometry width="280" height="378.99999999999994" as="geometry" />
        </mxCell>
        <mxCell id="jR49aNxmQRyQQmH85-RO-33" value="" style="rounded=1;whiteSpace=wrap;html=1;sketch=1;curveFitting=1;jiggle=2;" vertex="1" parent="jR49aNxmQRyQQmH85-RO-36">
          <mxGeometry width="280" height="378.99999999999994" as="geometry" />
        </mxCell>
        <mxCell id="jR49aNxmQRyQQmH85-RO-21" value="endpoint" style="rounded=1;whiteSpace=wrap;html=1;sketch=1;curveFitting=1;jiggle=2;fontSize=14;" vertex="1" parent="jR49aNxmQRyQQmH85-RO-36">
          <mxGeometry x="45.16129032258065" y="29.076719576719576" width="63.22580645161291" height="40.1058201058201" as="geometry" />
        </mxCell>
        <mxCell id="jR49aNxmQRyQQmH85-RO-22" value="certification" style="rounded=1;whiteSpace=wrap;html=1;sketch=1;curveFitting=1;jiggle=2;fontSize=14;" vertex="1" parent="jR49aNxmQRyQQmH85-RO-36">
          <mxGeometry x="155.80645161290323" y="239.6322751322751" width="76.7741935483871" height="40.1058201058201" as="geometry" />
        </mxCell>
        <mxCell id="jR49aNxmQRyQQmH85-RO-23" value="endpoint" style="rounded=1;whiteSpace=wrap;html=1;sketch=1;curveFitting=1;jiggle=2;fontSize=14;" vertex="1" parent="jR49aNxmQRyQQmH85-RO-36">
          <mxGeometry x="45.16129032258065" y="99.26190476190476" width="63.22580645161291" height="40.1058201058201" as="geometry" />
        </mxCell>
        <mxCell id="jR49aNxmQRyQQmH85-RO-24" value="proxy" style="rounded=1;whiteSpace=wrap;html=1;sketch=1;curveFitting=1;jiggle=2;fontSize=14;" vertex="1" parent="jR49aNxmQRyQQmH85-RO-36">
          <mxGeometry x="162.5806451612903" y="99.26190476190476" width="63.22580645161291" height="40.1058201058201" as="geometry" />
        </mxCell>
        <mxCell id="jR49aNxmQRyQQmH85-RO-25" value="REST API" style="rounded=1;whiteSpace=wrap;html=1;sketch=1;curveFitting=1;jiggle=2;fontSize=14;" vertex="1" parent="jR49aNxmQRyQQmH85-RO-36">
          <mxGeometry x="162.5806451612903" y="29.076719576719576" width="63.22580645161291" height="40.1058201058201" as="geometry" />
        </mxCell>
        <mxCell id="jR49aNxmQRyQQmH85-RO-26" value="bgp" style="rounded=1;whiteSpace=wrap;html=1;sketch=1;curveFitting=1;jiggle=2;fontSize=14;" vertex="1" parent="jR49aNxmQRyQQmH85-RO-36">
          <mxGeometry x="45.16129032258065" y="169.44708994708992" width="63.22580645161291" height="40.1058201058201" as="geometry" />
        </mxCell>
        <mxCell id="jR49aNxmQRyQQmH85-RO-27" value="ipam" style="rounded=1;whiteSpace=wrap;html=1;sketch=1;curveFitting=1;jiggle=2;fontSize=14;" vertex="1" parent="jR49aNxmQRyQQmH85-RO-36">
          <mxGeometry x="162.5806451612903" y="169.44708994708992" width="63.22580645161291" height="40.1058201058201" as="geometry" />
        </mxCell>
        <mxCell id="jR49aNxmQRyQQmH85-RO-30" value="egressgateway" style="rounded=1;whiteSpace=wrap;html=1;sketch=1;curveFitting=1;jiggle=2;fontSize=14;" vertex="1" parent="jR49aNxmQRyQQmH85-RO-36">
          <mxGeometry x="155.80645161290323" y="309.8174603174603" width="94.83870967741936" height="40.1058201058201" as="geometry" />
        </mxCell>
        <mxCell id="jR49aNxmQRyQQmH85-RO-31" value="clustermesh" style="rounded=1;whiteSpace=wrap;html=1;sketch=1;curveFitting=1;jiggle=2;fontSize=14;" vertex="1" parent="jR49aNxmQRyQQmH85-RO-36">
          <mxGeometry x="38.38709677419355" y="241.63756613756613" width="76.7741935483871" height="40.1058201058201" as="geometry" />
        </mxCell>
        <mxCell id="jR49aNxmQRyQQmH85-RO-32" value="l2announcement" style="rounded=1;whiteSpace=wrap;html=1;sketch=1;curveFitting=1;jiggle=2;fontSize=14;" vertex="1" parent="jR49aNxmQRyQQmH85-RO-36">
          <mxGeometry x="24.838709677419356" y="309.8174603174603" width="103.87096774193549" height="40.1058201058201" as="geometry" />
        </mxCell>
        <mxCell id="jR49aNxmQRyQQmH85-RO-34" value="..." style="text;html=1;strokeColor=none;fillColor=none;align=center;verticalAlign=middle;whiteSpace=wrap;rounded=0;fontSize=16;" vertex="1" parent="jR49aNxmQRyQQmH85-RO-36">
          <mxGeometry x="115.16129032258065" y="348.9206349206349" width="54.193548387096776" height="30.079365079365076" as="geometry" />
        </mxCell>
        <mxCell id="jR49aNxmQRyQQmH85-RO-38" value="" style="endArrow=classic;html=1;rounded=0;entryX=0.5;entryY=0;entryDx=0;entryDy=0;sketch=1;curveFitting=1;jiggle=2;" edge="1" parent="1" target="jR49aNxmQRyQQmH85-RO-20">
          <mxGeometry width="50" height="50" relative="1" as="geometry">
            <mxPoint x="290" y="200" as="sourcePoint" />
            <mxPoint x="340" y="150" as="targetPoint" />
          </mxGeometry>
        </mxCell>
        <mxCell id="jR49aNxmQRyQQmH85-RO-39" value="" style="endArrow=classic;html=1;rounded=0;entryX=0.5;entryY=0;entryDx=0;entryDy=0;sketch=1;curveFitting=1;jiggle=2;exitX=0.5;exitY=1;exitDx=0;exitDy=0;" edge="1" parent="1" source="jR49aNxmQRyQQmH85-RO-4" target="jR49aNxmQRyQQmH85-RO-33">
          <mxGeometry width="50" height="50" relative="1" as="geometry">
            <mxPoint x="580" y="200" as="sourcePoint" />
            <mxPoint x="420" y="231" as="targetPoint" />
          </mxGeometry>
        </mxCell>
        <mxCell id="jR49aNxmQRyQQmH85-RO-61" value="" style="group" vertex="1" connectable="0" parent="1">
          <mxGeometry x="760" y="231" width="234" height="329" as="geometry" />
        </mxCell>
        <mxCell id="jR49aNxmQRyQQmH85-RO-60" value="" style="rounded=1;whiteSpace=wrap;html=1;sketch=1;curveFitting=1;jiggle=2;" vertex="1" parent="jR49aNxmQRyQQmH85-RO-61">
          <mxGeometry x="-10" width="244" height="329" as="geometry" />
        </mxCell>
        <mxCell id="jR49aNxmQRyQQmH85-RO-52" value="maps" style="rounded=1;whiteSpace=wrap;html=1;sketch=1;curveFitting=1;jiggle=2;fontSize=14;" vertex="1" parent="jR49aNxmQRyQQmH85-RO-61">
          <mxGeometry x="20.001290322580644" y="28.996719576719613" width="63.22580645161291" height="40.1058201058201" as="geometry" />
        </mxCell>
        <mxCell id="jR49aNxmQRyQQmH85-RO-53" value="eventmaps" style="rounded=1;whiteSpace=wrap;html=1;sketch=1;curveFitting=1;jiggle=2;fontSize=14;" vertex="1" parent="jR49aNxmQRyQQmH85-RO-61">
          <mxGeometry x="110" y="29" width="80" height="40.11" as="geometry" />
        </mxCell>
        <mxCell id="jR49aNxmQRyQQmH85-RO-54" value="monitor" style="rounded=1;whiteSpace=wrap;html=1;sketch=1;curveFitting=1;jiggle=2;fontSize=14;" vertex="1" parent="jR49aNxmQRyQQmH85-RO-61">
          <mxGeometry x="120" y="99" width="80" height="40.11" as="geometry" />
        </mxCell>
        <mxCell id="jR49aNxmQRyQQmH85-RO-55" value="l2responder" style="rounded=1;whiteSpace=wrap;html=1;sketch=1;curveFitting=1;jiggle=2;fontSize=14;" vertex="1" parent="jR49aNxmQRyQQmH85-RO-61">
          <mxGeometry x="11.610000000000014" y="99" width="80" height="40.11" as="geometry" />
        </mxCell>
        <mxCell id="jR49aNxmQRyQQmH85-RO-56" value="tables" style="rounded=1;whiteSpace=wrap;html=1;sketch=1;curveFitting=1;jiggle=2;fontSize=14;" vertex="1" parent="jR49aNxmQRyQQmH85-RO-61">
          <mxGeometry x="11.610000000000014" y="169.45" width="80" height="40.11" as="geometry" />
        </mxCell>
        <mxCell id="jR49aNxmQRyQQmH85-RO-57" value="garp" style="rounded=1;whiteSpace=wrap;html=1;sketch=1;curveFitting=1;jiggle=2;fontSize=14;" vertex="1" parent="jR49aNxmQRyQQmH85-RO-61">
          <mxGeometry x="120" y="169.45" width="80" height="40.11" as="geometry" />
        </mxCell>
        <mxCell id="jR49aNxmQRyQQmH85-RO-58" value="nodehandler" style="rounded=1;whiteSpace=wrap;html=1;sketch=1;curveFitting=1;jiggle=2;fontSize=14;" vertex="1" parent="jR49aNxmQRyQQmH85-RO-61">
          <mxGeometry x="11.610000000000014" y="239" width="88.39" height="40.11" as="geometry" />
        </mxCell>
        <mxCell id="jR49aNxmQRyQQmH85-RO-59" value="deviceconfig" style="rounded=1;whiteSpace=wrap;html=1;sketch=1;curveFitting=1;jiggle=2;fontSize=14;" vertex="1" parent="jR49aNxmQRyQQmH85-RO-61">
          <mxGeometry x="115.79999999999995" y="239" width="88.39" height="40.11" as="geometry" />
        </mxCell>
        <mxCell id="jR49aNxmQRyQQmH85-RO-62" value="" style="endArrow=classic;html=1;rounded=0;entryX=0.5;entryY=0;entryDx=0;entryDy=0;sketch=1;curveFitting=1;jiggle=2;" edge="1" parent="1" target="jR49aNxmQRyQQmH85-RO-60">
          <mxGeometry width="50" height="50" relative="1" as="geometry">
            <mxPoint x="850" y="200" as="sourcePoint" />
            <mxPoint x="900" y="150" as="targetPoint" />
          </mxGeometry>
        </mxCell>
      </root>
    </mxGraphModel>
  </diagram>
</mxfile>
